<?xml version="1.0" encoding="UTF-8"?>
<svg id="Layer_2" data-name="Layer 2" xmlns="http://www.w3.org/2000/svg" viewBox="0 0 1651.6 396">
  <defs>
    <style>
      .cls-1 {
        fill: #654c53;
      }

      .cls-1, .cls-2, .cls-3 {
        stroke-width: 0px;
      }

      .cls-2 {
        fill: #ebe5d2;
      }

      .cls-3 {
        fill: #fdc671;
      }
    </style>
  </defs>
  <g id="Prod">
    <g>
      <g>
        <path class="cls-2" d="M651.23,266.66v-23.21c-8.67,14.03-22.96,27.04-42.6,27.04-27.29,0-49.23-23.47-49.23-68.36s22.7-72.95,58.41-72.95c11.73,0,26.53,2.81,32.9,11.99v-63.26h8.42v188.75h-7.91ZM650.71,157.23c0-11.99-11.99-20.66-31.63-20.66-33.92,0-51.01,26.02-51.01,62.49,0,40.3,16.83,64.02,42.09,64.02,17.6,0,28.06-11.22,35.2-21.94,4.34-6.63,5.36-8.93,5.36-15.05v-68.87Z"/>
        <path class="cls-2" d="M877.73,266.66v-94.63c0-23.21-14.54-35.46-35.96-35.46-15.56,0-28.82,7.91-38.52,23.21-3.31,5.36-4.08,7.4-4.08,13.77v93.1h-8.42v-94.63c0-23.21-14.79-35.46-36.22-35.46-15.56,0-28.57,7.91-38.26,23.21-3.32,5.36-4.34,7.4-4.34,13.77v93.1h-8.42v-133.66h7.91v22.96c10.2-15.56,25-26.78,44.64-26.78,18.37,0,35.46,8.16,41.07,28.57,10.46-15.3,23.47-28.57,45.91-28.57s43.11,12.24,43.11,43.36v94.12h-8.42Z"/>
        <path class="cls-2" d="M908.08,199.83v-8.67h58.92v8.67h-58.92Z"/>
        <path class="cls-2" d="M997.35,93.46c-4.59,0-7.65-3.06-7.65-7.65s3.06-7.91,7.65-7.91,7.65,3.32,7.65,7.91-3.06,7.65-7.65,7.65ZM992.76,266.66v-133.66h8.42v133.66h-8.42Z"/>
        <path class="cls-2" d="M1115.71,92.44c-5.1-5.36-12.24-9.44-22.19-9.44-24.49,0-35.97,19.13-35.97,43.62v8.93h40.56v7.91h-40.56v123.2h-8.42v-123.2h-23.98v-7.91h23.98v-8.93c0-30.35,17.6-51.27,44.38-51.27,10.71,0,20.41,3.83,28.06,11.48l-5.87,5.61Z"/>
        <path class="cls-2" d="M1159.57,277.37c-6.89,20.15-17.85,42.34-49.74,44.38l-.51-8.16c27.04-.77,38.26-21.43,44.89-45.4l-50.76-135.19h8.93l32.14,85.7c6.89,18.11,12.24,33.41,14.03,39.03h.51c2.3-7.14,7.4-22.45,13.26-40.3l28.06-84.43h8.16l-48.97,144.37Z"/>
        <path class="cls-2" d="M1465.14,266.66v-94.63c0-23.21-14.54-35.46-35.96-35.46-15.56,0-28.82,7.91-38.52,23.21-3.31,5.36-4.08,7.4-4.08,13.77v93.1h-8.42v-94.63c0-23.21-14.79-35.46-36.22-35.46-15.56,0-28.57,7.91-38.26,23.21-3.32,5.36-4.34,7.4-4.34,13.77v93.1h-8.42v-133.66h7.91v22.96c10.2-15.56,25-26.78,44.64-26.78,18.37,0,35.46,8.16,41.07,28.57,10.46-15.3,23.47-28.57,45.91-28.57s43.11,12.24,43.11,43.36v94.12h-8.42Z"/>
        <path class="cls-2" d="M1604.67,191.67h-91.83c0,3.06-.26,5.87-.26,8.93,0,31.88,14.79,61.98,50.25,61.98,13.01,0,24.74-6.12,33.16-15.81l5.87,5.36c-9.95,11.99-24.74,18.37-40.3,18.37-41.32,0-57.39-33.41-57.39-70.14,0-32.65,14.79-71.16,52.8-71.16,32.14,0,47.95,28.06,47.95,57.14,0,1.79,0,3.57-.25,5.36ZM1556.2,136.57c-26.27,0-40.05,23.98-42.34,47.44h82.64c0-23.47-14.54-47.44-40.3-47.44Z"/>
        <path class="cls-3" d="M1643.95,268.19c-4.59,0-7.91-3.32-7.91-7.91s3.06-7.65,7.65-7.65,7.91,3.06,7.91,7.65-3.06,7.91-7.65,7.91ZM1647.01,230.18h-5.87s-2.3-93.61-2.3-152.28h10.2c0,58.67-2.04,152.28-2.04,152.28Z"/>
      </g>
      <g>
        <path class="cls-2" d="M329.68,56.77h-65.22c52.69,25.03,89.21,78.77,89.21,140.87s-36.53,115.85-89.23,140.87h65.24c77.55,0,141-63.39,141-140.87s-63.45-140.87-141-140.87Z"/>
        <g>
          <path class="cls-1" d="M277.61,163.7c-17.83.18-32.23,14.68-32.23,32.55s14.18,32.14,31.81,32.54h.1c18.26,0,33.2-14.65,33.2-32.55,0-.11,0-.22-.01-.33-.18-17.64-14.86-32.04-32.87-32.21Z"/>
          <path class="cls-3" d="M230.34,303.24c-6.35-9.14-13.21-20.8-19.05-34.84-3.76.61-7.58.94-11.46.94-39.54,0-71.7-32.16-71.7-71.7s32.16-71.7,71.7-71.7c3.63,0,7.22.28,10.74.8,5.99-14.5,13.16-26.39,19.77-35.58,7.39-10.27,14.82-18.25,20.8-23.95-16.4-6.71-34.35-10.42-53.16-10.44h-.13c-1.77,0-3.54.03-5.3.1-70.52,2.6-127.8,57.06-134.84,126.37-.48,4.73-.73,9.54-.73,14.4s.25,9.67.73,14.4c7.04,69.31,64.32,123.77,134.84,126.37,1.76.07,3.53.1,5.3.1h.13c18.78-.02,36.7-3.72,53.08-10.41-5.96-5.97-13.36-14.28-20.72-24.86Z"/>
          <path class="cls-3" d="M199.83,134.44c-34.91,0-63.2,28.29-63.2,63.2s28.29,63.2,63.2,63.2c2.81,0,5.58-.19,8.3-.55.34-.04.68-.08,1.02-.13,9.22-1.36,17.8-4.72,25.27-9.64,8.1-5.3,14.9-12.42,19.84-20.77-10.5-7.45-17.37-19.68-17.37-33.5s6.36-25.13,16.19-32.64c-6.04-9.43-14.5-17.15-24.51-22.27-6.18-3.16-12.96-5.33-20.11-6.31-.34-.05-.67-.1-1.01-.14-2.5-.3-5.03-.45-7.61-.45Z"/>
        </g>
        <path class="cls-3" d="M183.1,380.99c0-8.29,6.71-15,15-15.01h0c8.28,0,15,6.71,15,14.99h0c0,8.29-6.7,15-14.99,15.01h0c-8.28,0-15-6.71-15.01-14.99ZM58.11,338.11h0c-5.86-5.86-5.87-15.35-.02-21.22h0c5.86-5.86,15.35-5.87,21.22,0h0c5.86,5.85,5.87,15.35,0,21.21h0c-2.93,2.93-6.77,4.4-10.61,4.4h0c-3.84,0-7.67-1.46-10.6-4.38ZM0,198.2c0-8.28,6.7-15,14.98-15.01h0c8.29-.01,15.01,6.7,15.02,14.98h0c0,8.29-6.7,15.01-14.98,15.02h-.02C6.72,213.19,0,206.48,0,198.2ZM57.82,79.38c-5.86-5.84-5.88-15.34-.03-21.21h0c5.86-5.86,15.35-5.88,21.22-.03h0c5.86,5.85,5.88,15.35.03,21.21h0c-2.93,2.94-6.78,4.41-10.62,4.41h0c-3.84,0-7.67-1.46-10.6-4.38ZM182.69,15.01c0-8.29,6.69-15.02,14.98-15.03h0c8.28-.01,15.01,6.69,15.02,14.98h0c.01,8.28-6.69,15.01-14.97,15.02h-.03c-8.27,0-14.99-6.7-15-14.97Z"/>
      </g>
    </g>
  </g>
</svg>