<?xml version="1.0" encoding="UTF-8"?>
<svg id="Layer_2" data-name="Layer 2" xmlns="http://www.w3.org/2000/svg" viewBox="0 0 599.5 614.1">
  <defs>
    <style>
      .cls-1 {
        fill: #654c53;
      }

      .cls-1, .cls-2, .cls-3 {
        stroke-width: 0px;
      }

      .cls-2 {
        fill: #ebe5d2;
      }

      .cls-3 {
        fill: #fdc671;
      }
    </style>
  </defs>
  <g id="Prod">
    <g>
      <g>
        <path class="cls-2" d="M50.42,583.86v-12.74c-4.76,7.7-12.6,14.84-23.38,14.84-14.98,0-27.02-12.88-27.02-37.52s12.46-40.04,32.06-40.04c6.44,0,14.56,1.54,18.06,6.58v-34.72h4.62v103.6h-4.34ZM50.13,523.8c0-6.58-6.58-11.34-17.36-11.34-18.62,0-28,14.28-28,34.3,0,22.12,9.24,35.14,23.1,35.14,9.66,0,15.4-6.16,19.32-12.04,2.38-3.64,2.94-4.9,2.94-8.26v-37.8Z"/>
        <path class="cls-2" d="M174.73,583.86v-51.94c0-12.74-7.98-19.46-19.74-19.46-8.54,0-15.82,4.34-21.14,12.74-1.82,2.94-2.24,4.06-2.24,7.56v51.1h-4.62v-51.94c0-12.74-8.12-19.46-19.88-19.46-8.54,0-15.68,4.34-21,12.74-1.82,2.94-2.38,4.06-2.38,7.56v51.1h-4.62v-73.36h4.34v12.6c5.6-8.54,13.72-14.7,24.5-14.7,10.08,0,19.46,4.48,22.54,15.68,5.74-8.4,12.88-15.68,25.2-15.68s23.66,6.72,23.66,23.8v51.66h-4.62Z"/>
        <path class="cls-2" d="M191.39,547.18v-4.76h32.34v4.76h-32.34Z"/>
        <path class="cls-2" d="M240.39,488.8c-2.52,0-4.2-1.68-4.2-4.2s1.68-4.34,4.2-4.34,4.2,1.82,4.2,4.34-1.68,4.2-4.2,4.2ZM237.87,583.86v-73.36h4.62v73.36h-4.62Z"/>
        <path class="cls-2" d="M305.35,488.24c-2.8-2.94-6.72-5.18-12.18-5.18-13.44,0-19.74,10.5-19.74,23.94v4.9h22.26v4.34h-22.26v67.62h-4.62v-67.62h-13.16v-4.34h13.16v-4.9c0-16.66,9.66-28.14,24.36-28.14,5.88,0,11.2,2.1,15.4,6.3l-3.22,3.08Z"/>
        <path class="cls-2" d="M329.43,589.74c-3.78,11.06-9.8,23.24-27.3,24.36l-.28-4.48c14.84-.42,21-11.76,24.64-24.92l-27.86-74.2h4.9l17.64,47.04c3.78,9.94,6.72,18.34,7.7,21.42h.28c1.26-3.92,4.06-12.32,7.28-22.12l15.4-46.34h4.48l-26.88,79.24Z"/>
        <path class="cls-2" d="M497.15,583.86v-51.94c0-12.74-7.98-19.46-19.74-19.46-8.54,0-15.82,4.34-21.14,12.74-1.82,2.94-2.24,4.06-2.24,7.56v51.1h-4.62v-51.94c0-12.74-8.12-19.46-19.88-19.46-8.54,0-15.68,4.34-21,12.74-1.82,2.94-2.38,4.06-2.38,7.56v51.1h-4.62v-73.36h4.34v12.6c5.6-8.54,13.72-14.7,24.5-14.7,10.08,0,19.46,4.48,22.54,15.68,5.74-8.4,12.88-15.68,25.2-15.68s23.66,6.72,23.66,23.8v51.66h-4.62Z"/>
        <path class="cls-2" d="M573.72,542.7h-50.4c0,1.68-.14,3.22-.14,4.9,0,17.5,8.12,34.02,27.58,34.02,7.14,0,13.58-3.36,18.2-8.68l3.22,2.94c-5.46,6.58-13.58,10.08-22.12,10.08-22.68,0-31.5-18.34-31.5-38.5,0-17.92,8.12-39.06,28.98-39.06,17.64,0,26.32,15.4,26.32,31.36,0,.98,0,1.96-.14,2.94ZM547.12,512.46c-14.42,0-21.98,13.16-23.24,26.04h45.36c0-12.88-7.98-26.04-22.12-26.04Z"/>
        <path class="cls-3" d="M595.28,584.7c-2.52,0-4.34-1.82-4.34-4.34s1.68-4.2,4.2-4.2,4.34,1.68,4.34,4.2-1.68,4.34-4.2,4.34ZM596.96,563.84h-3.22s-1.26-51.38-1.26-83.58h5.6c0,32.2-1.12,83.58-1.12,83.58Z"/>
      </g>
      <g>
        <path class="cls-2" d="M394.11,56.78h-65.22c52.69,25.03,89.21,78.77,89.21,140.87s-36.53,115.85-89.23,140.87h65.24c77.55,0,141-63.39,141-140.87s-63.45-140.87-141-140.87Z"/>
        <g>
          <path class="cls-1" d="M342.04,163.71c-17.83.18-32.23,14.68-32.23,32.55s14.18,32.14,31.81,32.54h.1c18.26,0,33.2-14.65,33.2-32.55,0-.11,0-.22-.01-.33-.18-17.64-14.86-32.04-32.87-32.21Z"/>
          <path class="cls-3" d="M294.77,303.25c-6.35-9.14-13.21-20.8-19.05-34.84-3.76.61-7.58.94-11.46.94-39.54,0-71.7-32.16-71.7-71.7s32.16-71.7,71.7-71.7c3.63,0,7.22.28,10.74.8,5.99-14.5,13.16-26.39,19.77-35.58,7.39-10.27,14.82-18.25,20.8-23.95-16.4-6.71-34.35-10.42-53.16-10.44h-.13c-1.77,0-3.54.03-5.3.1-70.52,2.6-127.8,57.06-134.84,126.37-.48,4.73-.73,9.54-.73,14.4s.25,9.67.73,14.4c7.04,69.31,64.32,123.77,134.84,126.37,1.76.07,3.53.1,5.3.1h.13c18.78-.02,36.7-3.72,53.08-10.41-5.96-5.97-13.36-14.28-20.72-24.86Z"/>
          <path class="cls-3" d="M264.26,134.45c-34.91,0-63.2,28.29-63.2,63.2s28.29,63.2,63.2,63.2c2.81,0,5.58-.19,8.3-.55.34-.04.68-.08,1.02-.13,9.22-1.36,17.8-4.72,25.27-9.64,8.1-5.3,14.9-12.42,19.84-20.77-10.5-7.45-17.37-19.68-17.37-33.5s6.36-25.13,16.19-32.64c-6.04-9.43-14.5-17.15-24.51-22.27-6.18-3.16-12.96-5.33-20.11-6.31-.34-.05-.67-.1-1.01-.14-2.5-.3-5.03-.45-7.61-.45Z"/>
        </g>
        <path class="cls-3" d="M247.53,381c0-8.29,6.71-15,15-15.01h0c8.28,0,15,6.71,15,14.99h0c0,8.29-6.7,15-14.99,15.01h0c-8.28,0-15-6.71-15.01-14.99ZM122.54,338.12h0c-5.86-5.86-5.87-15.35-.02-21.22h0c5.86-5.86,15.35-5.87,21.22,0h0c5.86,5.85,5.87,15.35,0,21.21h0c-2.93,2.93-6.77,4.4-10.61,4.4h0c-3.84,0-7.67-1.46-10.6-4.38ZM64.43,198.21c0-8.28,6.7-15,14.98-15.01h0c8.29-.01,15.01,6.7,15.02,14.98h0c0,8.29-6.7,15.01-14.98,15.02h-.02c-8.28,0-14.99-6.71-15-14.99ZM122.25,79.39c-5.86-5.84-5.88-15.34-.03-21.21h0c5.86-5.86,15.35-5.88,21.22-.03h0c5.86,5.85,5.88,15.35.03,21.21h0c-2.93,2.94-6.78,4.41-10.62,4.41h0c-3.84,0-7.67-1.46-10.6-4.38ZM247.12,15.02c0-8.29,6.69-15.02,14.98-15.03h0c8.28-.01,15.01,6.69,15.02,14.98h0c.01,8.28-6.69,15.01-14.97,15.02h-.03c-8.27,0-14.99-6.7-15-14.97Z"/>
      </g>
    </g>
  </g>
</svg>