<?xml version="1.0" encoding="utf-8"?>
<!-- Generator: Adobe Illustrator 28.3.0, SVG Export Plug-In . SVG Version: 6.00 Build 0)  -->
<svg version="1.1" id="Layer_2_00000001659278473446097000000009334547992168876428_"
	 xmlns="http://www.w3.org/2000/svg" xmlns:xlink="http://www.w3.org/1999/xlink" x="0px" y="0px" viewBox="0 0 1651.6 396"
	 style="enable-background:new 0 0 1651.6 396;" xml:space="preserve">
<style type="text/css">
	.st0{fill:#EBE5D2;}
	.st1{fill:#654C53;}
	.st2{fill:#FDC671;}
</style>
<g id="Prod">
	<g>
		<g>
			<path class="st0" d="M329.7,56.8h-65.2c52.7,25,89.2,78.8,89.2,140.9s-36.5,115.9-89.2,140.9h65.2c77.6,0,141-63.4,141-140.9
				S407.2,56.8,329.7,56.8z"/>
			<path class="st1" d="M277.2,228.8h0.1c18.3,0,33.2-14.7,33.2-32.5c0-0.1,0-0.2,0-0.3c-0.2-17.6-14.9-32-32.9-32.2
				c-17.8,0.2-32.2,14.7-32.2,32.5C245.4,214,259.6,228.4,277.2,228.8z"/>
			<path class="st2" d="M312.8,279.1c-4.2,0.6-8.4,0.9-12.7,0.9c-23,0-43.9-8.9-59.6-23.3c-11.8,8.1-25.9,12.7-40.6,12.7
				c-39.5,0-71.7-32.2-71.7-71.7s32.2-71.7,71.7-71.7c12.1,0,23.8,3,34.1,8.6c16.1-18.4,39.7-30.1,66.1-30.1c1.2,0,2.4,0,3.5,0.1
				C277.8,75.3,240.1,56.8,198,56.8h-0.1c-1.8,0-3.5,0-5.3,0.1c-70.6,2.6-127.8,57-134.9,126.4c-0.5,4.7-0.7,9.5-0.7,14.4
				s0.2,9.7,0.7,14.4c7,69.3,64.3,123.8,134.8,126.4c1.8,0.1,3.5,0.1,5.3,0.1h0.1C245.4,338.5,287.3,315,312.8,279.1z"/>
			<path class="st2" d="M253.1,163.6c-6-9.4-14.5-17.1-24.5-22.3c-8.6-4.4-18.4-6.9-28.7-6.9c-34.9,0-63.2,28.3-63.2,63.2
				s28.3,63.2,63.2,63.2c12.8,0,24.6-3.8,34.6-10.3c8.1-5.3,14.9-12.4,19.8-20.8c-10.5-7.4-17.4-19.7-17.4-33.5
				C236.9,183,243.2,171.1,253.1,163.6z"/>
			<path class="st2" d="M183.1,381c0-8.3,6.7-15,15-15l0,0c8.3,0,15,6.7,15,15l0,0c0,8.3-6.7,15-15,15l0,0
				C189.8,396,183.1,389.3,183.1,381z M58.1,338.1L58.1,338.1L58.1,338.1c-5.9-5.9-5.9-15.4,0-21.2l0,0c5.9-5.9,15.3-5.9,21.2,0l0,0
				c5.9,5.9,5.9,15.4,0,21.2l0,0c-2.9,2.9-6.8,4.4-10.6,4.4l0,0C64.9,342.5,61,341,58.1,338.1z M0,198.2c0-8.3,6.7-15,15-15l0,0
				c8.3,0,15,6.7,15,15l0,0c0,8.3-6.7,15-15,15l0,0l0,0l0,0C6.7,213.2,0,206.5,0,198.2z M57.8,79.4c-5.9-5.8-5.9-15.3,0-21.2l0,0
				c5.9-5.9,15.3-5.9,21.2,0l0,0c5.9,5.9,5.9,15.4,0,21.2l0,0c-2.9,2.9-6.8,4.4-10.6,4.4l0,0C64.6,83.8,60.8,82.3,57.8,79.4z
				 M182.7,15c0-8.3,6.7-15,15-15l0,0c8.3,0,15,6.7,15,15l0,0c0,8.3-6.7,15-15,15l0,0l0,0l0,0C189.4,30,182.7,23.3,182.7,15z"/>
		</g>
		<g>
			<path class="st0" d="M651.3,266.6v-23.2c-8.7,14-23,27.1-42.6,27.1c-27.3,0-49.3-23.5-49.3-68.3s22.7-72.9,58.3-72.9
				c11.7,0,26.6,2.8,32.9,12V78h8.4v188.7L651.3,266.6L651.3,266.6z M650.8,157.1c0-12-12-20.7-31.7-20.7c-34,0-50.9,26-50.9,62.4
				c0,40.3,16.9,64,42.1,64c17.6,0,28.1-11.2,35.2-22c4.3-6.6,5.4-8.9,5.4-15.1L650.8,157.1L650.8,157.1z"/>
			<path class="st0" d="M877.8,266.6V172c0-23.2-14.6-35.5-36-35.5c-15.6,0-28.9,7.9-38.6,23.2c-3.3,5.4-4.1,7.4-4.1,13.8v93.1h-8.4
				V172c0-23.2-14.8-35.5-36.3-35.5c-15.6,0-28.6,7.9-38.3,23.2c-3.3,5.4-4.3,7.4-4.3,13.8v93.1h-8.4V132.9h7.9v23
				c10.2-15.6,25-26.8,44.7-26.8c18.4,0,35.5,8.2,41.1,28.6c10.5-15.3,23.5-28.6,45.8-28.6s43.2,12.3,43.2,43.4v94.1H877.8
				L877.8,266.6z"/>
			<path class="st0" d="M908.2,199.7V191h58.9v8.7H908.2z"/>
			<path class="st0" d="M997.5,93.3c-4.6,0-7.7-3.1-7.7-7.7c0-4.6,3.1-7.9,7.7-7.9s7.7,3.3,7.7,7.9
				C1005.1,90.2,1002.1,93.3,997.5,93.3z M992.9,266.6V132.9h8.4v133.7H992.9z"/>
			<path class="st0" d="M1115.7,92.3c-5.1-5.4-12.3-9.4-22.2-9.4c-24.5,0-36,19.2-36,43.7v8.9h40.6v7.9h-40.6v123.2h-8.3V143.4h-24
				v-7.9h24v-8.9c0-30.4,17.6-51.2,44.4-51.2c10.7,0,20.4,3.8,28.1,11.5L1115.7,92.3L1115.7,92.3z"/>
			<path class="st0" d="M1159.6,277.2c-6.9,20.2-17.9,42.4-49.8,44.4l-0.5-8.2c27.1-0.8,38.3-21.5,44.9-45.5l-50.7-135.2h8.9
				l32.2,85.7c6.9,18.1,12.3,33.5,14,39.1h0.5c2.3-7.2,7.4-22.5,13.3-40.3l28.1-84.4h8.2L1159.6,277.2L1159.6,277.2z"/>
			<path class="st0" d="M1465.2,266.6V172c0-23.2-14.6-35.5-36-35.5c-15.6,0-28.9,7.9-38.6,23.2c-3.3,5.4-4.1,7.4-4.1,13.8v93.1
				h-8.4V172c0-23.2-14.8-35.5-36.3-35.5c-15.6,0-28.6,7.9-38.3,23.2c-3.3,5.4-4.3,7.4-4.3,13.8v93.1h-8.4V132.9h7.9v23
				c10.2-15.6,25-26.8,44.7-26.8c18.4,0,35.5,8.2,41.1,28.6c10.5-15.3,23.5-28.6,45.8-28.6c22.3,0,43.2,12.3,43.2,43.4v94.1H1465.2
				L1465.2,266.6z"/>
			<path class="st0" d="M1604.6,191.5h-91.8c0,3.1-0.3,5.9-0.3,8.9c0,31.9,14.8,61.9,50.3,61.9c13,0,24.8-6.1,33.2-15.8l5.9,5.4
				c-10,12-24.8,18.4-40.3,18.4c-41.4,0-57.3-33.5-57.3-70.1c0-32.7,14.8-71.1,52.7-71.1c32.2,0,48,28.1,48,57.1
				C1604.8,187.9,1604.8,189.7,1604.6,191.5L1604.6,191.5z M1556.2,136.5c-26.3,0-40.1,24-42.4,47.4h82.6
				C1596.5,160.5,1582,136.5,1556.2,136.5z"/>
			<path class="st2" d="M1643.9,268.1c-4.6,0-7.9-3.3-7.9-7.9s3.1-7.7,7.7-7.7c4.6,0,7.9,3.1,7.9,7.7
				C1651.6,264.8,1648.5,268.1,1643.9,268.1z M1647,230.1h-5.9c0,0-2.3-93.6-2.3-152.2h10.2C1649,136.5,1647,230.1,1647,230.1
				L1647,230.1z"/>
		</g>
	</g>
</g>
</svg>
