<?xml version="1.0" encoding="utf-8"?>
<!-- Generator: Adobe Illustrator 28.3.0, SVG Export Plug-In . SVG Version: 6.00 Build 0)  -->
<svg version="1.1" id="Layer_2_00000006700970989873953520000017336434547184208769_"
	 xmlns="http://www.w3.org/2000/svg" xmlns:xlink="http://www.w3.org/1999/xlink" x="0px" y="0px" viewBox="0 0 599.5 497.2"
	 style="enable-background:new 0 0 599.5 497.2;" xml:space="preserve">
<style type="text/css">
	.st0{fill:#EBE5D2;}
	.st1{fill:#654C53;}
	.st2{fill:#FDC671;}
</style>
<g id="Prod">
	<g>
		<g>
			<path class="st0" d="M369.2,0H304c52.7,25,89.2,78.8,89.2,140.9S356.7,256.8,304,281.8h65.2c77.5,0,141-63.4,141-140.9
				S446.7,0,369.2,0z"/>
			<path class="st1" d="M316.7,172h0.1c18.3,0,33.2-14.6,33.2-32.6c0-0.1,0-0.2,0-0.3c-0.2-17.6-14.9-32-32.9-32.2
				c-17.8,0.2-32.2,14.7-32.2,32.5S299,171.6,316.7,172L316.7,172z"/>
			<path class="st2" d="M352.3,222.3c-4.1,0.6-8.4,0.9-12.7,0.9c-23,0-44-8.9-59.6-23.4c-11.8,8.1-25.9,12.7-40.6,12.7
				c-39.5,0-71.7-32.2-71.7-71.7s32.2-71.7,71.7-71.7c12.1,0,23.8,3,34.1,8.6c16.1-18.4,39.7-30.1,66.1-30.1c1.2,0,2.4,0,3.5,0.1
				C317.3,18.5,279.5,0,237.5,0h-0.1c-1.8,0-3.5,0-5.3,0.1C161.5,2.7,104.2,57.2,97.2,126.5c-0.5,4.7-0.7,9.5-0.7,14.4
				s0.2,9.7,0.7,14.4c7,69.3,64.3,123.8,134.8,126.4c1.8,0.1,3.5,0.1,5.3,0.1h0.1C284.9,281.7,326.8,258.2,352.3,222.3L352.3,222.3z
				"/>
			<path class="st2" d="M292.5,106.8c-6-9.4-14.5-17.2-24.5-22.3c-8.6-4.4-18.4-6.9-28.7-6.9c-34.9,0-63.2,28.3-63.2,63.2
				s28.3,63.2,63.2,63.2c12.8,0,24.7-3.8,34.6-10.3c8.1-5.3,14.9-12.4,19.8-20.8c-10.5-7.4-17.4-19.7-17.4-33.5
				S282.7,114.3,292.5,106.8z"/>
		</g>
		<g>
			<path class="st0" d="M50.4,467v-12.7c-4.8,7.7-12.6,14.8-23.4,14.8c-15,0-27-12.9-27-37.5s12.5-40,32.1-40
				c6.4,0,14.6,1.5,18.1,6.6v-34.7h4.6V467H50.4z M50.1,407c0-6.6-6.6-11.3-17.4-11.3c-18.6,0-28,14.3-28,34.3
				c0.1,22,9.3,35,23.2,35c9.7,0,15.4-6.2,19.3-12c2.4-3.6,2.9-4.9,2.9-8.3V407L50.1,407z"/>
			<path class="st0" d="M174.7,467v-51.9c0-12.7-8-19.5-19.7-19.5c-8.5,0-15.8,4.3-21.1,12.7c-1.8,2.9-2.2,4.1-2.2,7.6V467H127
				v-51.9c0-12.7-8.1-19.5-19.9-19.5c-8.5,0-15.7,4.3-21,12.7c-1.8,2.9-2.4,4.1-2.4,7.6V467h-4.6v-73.4h4.3v12.6
				c5.6-8.5,13.7-14.7,24.5-14.7c10.1,0,19.5,4.5,22.5,15.7c5.7-8.4,12.9-15.7,25.2-15.7s23.7,6.7,23.7,23.8V467H174.7L174.7,467z"
				/>
			<path class="st0" d="M191.4,430.3v-4.8h32.3v4.8H191.4z"/>
			<path class="st0" d="M240.4,372c-2.5,0-4.2-1.7-4.2-4.2s1.7-4.3,4.2-4.3s4.2,1.8,4.2,4.3S242.9,372,240.4,372z M237.9,467v-73.4
				h4.6V467H237.9z"/>
			<path class="st0" d="M305.3,371.4c-2.8-2.9-6.7-5.2-12.2-5.2c-13.4,0-19.7,10.5-19.7,23.9v4.9h22.3v4.3h-22.3V467h-4.6v-67.6
				h-13.2v-4.3h13.2v-4.9c0-16.7,9.7-28.1,24.4-28.1c5.9,0,11.2,2.1,15.4,6.3L305.3,371.4L305.3,371.4z"/>
			<path class="st0" d="M329.4,472.9c-3.8,11.1-9.8,23.2-27.3,24.4l-0.3-4.5c14.8-0.4,21-11.8,24.6-24.9l-27.9-74.2h4.9l17.6,47
				c3.8,9.9,6.7,18.3,7.7,21.4h0.3c1.3-3.9,4.1-12.3,7.3-22.1l15.4-46.3h4.5L329.4,472.9L329.4,472.9z"/>
			<path class="st0" d="M497.1,467v-51.9c0-12.7-8-19.5-19.7-19.5c-8.5,0-15.8,4.3-21.1,12.7c-1.8,2.9-2.2,4.1-2.2,7.6V467h-4.6
				v-51.9c0-12.7-8.1-19.5-19.9-19.5c-8.5,0-15.7,4.3-21,12.7c-1.8,2.9-2.4,4.1-2.4,7.6V467h-4.6v-73.4h4.3v12.6
				c5.6-8.5,13.7-14.7,24.5-14.7c10.1,0,19.5,4.5,22.5,15.7c5.7-8.4,12.9-15.7,25.2-15.7s23.7,6.7,23.7,23.8V467H497.1L497.1,467z"
				/>
			<path class="st0" d="M573.7,425.9h-50.4c0,1.7-0.1,3.2-0.1,4.9c0,17.5,8.1,34,27.6,34c7.1,0,13.6-3.4,18.2-8.7l3.2,2.9
				c-5.5,6.6-13.6,10.1-22.1,10.1c-22.7,0-31.5-18.3-31.5-38.5c0-17.9,8.1-39.1,29-39.1c17.6,0,26.3,15.4,26.3,31.4
				C573.8,423.9,573.8,424.9,573.7,425.9L573.7,425.9z M547.1,395.6c-14.4,0-22,13.2-23.2,26h45.4
				C569.2,408.8,561.2,395.6,547.1,395.6z"/>
			<path class="st2" d="M595.3,467.9c-2.5,0-4.3-1.8-4.3-4.3s1.7-4.2,4.2-4.2s4.3,1.7,4.3,4.2S597.8,467.9,595.3,467.9z M597,447
				h-3.2c0,0-1.3-51.4-1.3-83.6h5.6C598.1,395.6,597,447,597,447z"/>
		</g>
	</g>
</g>
</svg>
