<?xml version="1.0" encoding="utf-8"?>
<!-- Generator: Adobe Illustrator 28.3.0, SVG Export Plug-In . SVG Version: 6.00 Build 0)  -->
<svg version="1.1" id="Layer_2_00000006700970989873953520000017336434547184208769_"
	 xmlns="http://www.w3.org/2000/svg" xmlns:xlink="http://www.w3.org/1999/xlink" x="0px" y="0px" viewBox="0 0 599.5 614.1"
	 style="enable-background:new 0 0 599.5 614.1;" xml:space="preserve">
<style type="text/css">
	.st0{fill:#EBE5D2;}
	.st1{fill:#654C53;}
	.st2{fill:#FDC671;}
</style>
<g id="Prod">
	<g>
		<g>
			<path class="st0" d="M394.1,56.8h-65.2c52.7,25,89.2,78.8,89.2,140.9s-36.5,115.9-89.2,140.9h65.2c77.6,0,141-63.4,141-140.9
				S471.6,56.8,394.1,56.8z"/>
			<path class="st1" d="M341.6,228.8h0.1c18.3,0,33.2-14.7,33.2-32.5c0-0.1,0-0.2,0-0.3c-0.2-17.6-14.9-32-32.9-32.2
				c-17.8,0.2-32.2,14.7-32.2,32.5C309.8,214,324,228.4,341.6,228.8z"/>
			<path class="st2" d="M377.2,279.1c-4.2,0.6-8.4,0.9-12.7,0.9c-23,0-43.9-8.9-59.6-23.3c-11.8,8.1-25.9,12.7-40.6,12.7
				c-39.5,0-71.7-32.2-71.7-71.7s32.2-71.7,71.7-71.7c12.1,0,23.8,3,34.1,8.6c16.1-18.4,39.7-30.1,66.1-30.1c1.2,0,2.4,0,3.5,0.1
				c-25.8-29.3-63.5-47.8-105.6-47.8h-0.1c-1.8,0-3.5,0-5.3,0.1c-70.6,2.6-127.8,57.1-134.9,126.4c-0.5,4.7-0.7,9.5-0.7,14.4
				s0.2,9.7,0.7,14.4c7,69.3,64.3,123.8,134.8,126.4c1.8,0.1,3.5,0.1,5.3,0.1h0.1C309.8,338.5,351.7,315.1,377.2,279.1z"/>
			<path class="st2" d="M317.5,163.6c-6-9.4-14.5-17.1-24.5-22.3c-8.6-4.4-18.4-6.9-28.7-6.9c-34.9,0-63.2,28.3-63.2,63.2
				s28.3,63.2,63.2,63.2c12.8,0,24.6-3.8,34.6-10.3c8.1-5.3,14.9-12.4,19.8-20.8c-10.5-7.4-17.4-19.7-17.4-33.5
				C301.3,183,307.6,171.2,317.5,163.6z"/>
			<path class="st2" d="M247.5,381c0-8.3,6.7-15,15-15l0,0c8.3,0,15,6.7,15,15l0,0c0,8.3-6.7,15-15,15l0,0
				C254.2,396,247.5,389.3,247.5,381z M122.5,338.2L122.5,338.2L122.5,338.2c-5.9-5.9-5.9-15.4,0-21.2l0,0c5.9-5.9,15.3-5.9,21.2,0
				l0,0c5.9,5.9,5.9,15.4,0,21.2l0,0c-2.9,2.9-6.8,4.4-10.6,4.4l0,0C129.3,342.5,125.4,341.1,122.5,338.2z M64.4,198.2
				c0-8.3,6.7-15,15-15l0,0c8.3,0,15,6.7,15,15l0,0c0,8.3-6.7,15-15,15l0,0l0,0l0,0C71.1,213.2,64.4,206.5,64.4,198.2z M122.2,79.4
				c-5.9-5.8-5.9-15.3,0-21.2l0,0c5.9-5.9,15.3-5.9,21.2,0l0,0c5.9,5.9,5.9,15.4,0,21.2l0,0c-2.9,2.9-6.8,4.4-10.6,4.4l0,0
				C129,83.8,125.2,82.3,122.2,79.4z M247.1,15.1c0-8.3,6.7-15,15-15l0,0c8.3,0,15,6.7,15,15l0,0c0,8.3-6.7,15-15,15l0,0l0,0l0,0
				C253.8,30,247.1,23.3,247.1,15.1z"/>
		</g>
		<g>
			<path class="st0" d="M50.4,583.8v-12.7c-4.8,7.7-12.6,14.8-23.4,14.8c-15,0-27-12.9-27-37.5s12.5-40,32.1-40
				c6.4,0,14.6,1.5,18.1,6.6v-34.7h4.6v103.5L50.4,583.8L50.4,583.8z M50.1,523.8c0-6.6-6.6-11.3-17.4-11.3c-18.6,0-28,14.3-28,34.3
				c0.1,22,9.3,35,23.2,35c9.7,0,15.4-6.2,19.3-12c2.4-3.6,2.9-4.9,2.9-8.3V523.8L50.1,523.8z"/>
			<path class="st0" d="M174.7,583.8v-51.9c0-12.7-8-19.5-19.7-19.5c-8.5,0-15.8,4.3-21.1,12.7c-1.8,2.9-2.2,4.1-2.2,7.6v51.1H127
				v-51.9c0-12.7-8.1-19.5-19.9-19.5c-8.5,0-15.7,4.3-21,12.7c-1.8,2.9-2.4,4.1-2.4,7.6v51.1h-4.6v-73.4h4.3V523
				c5.6-8.5,13.7-14.7,24.5-14.7c10.1,0,19.5,4.5,22.5,15.7c5.7-8.4,12.9-15.7,25.2-15.7s23.7,6.7,23.7,23.8v51.7H174.7L174.7,583.8
				z"/>
			<path class="st0" d="M191.4,547.1v-4.8h32.3v4.8H191.4z"/>
			<path class="st0" d="M240.4,488.8c-2.5,0-4.2-1.7-4.2-4.2s1.7-4.3,4.2-4.3s4.2,1.8,4.2,4.3S242.9,488.8,240.4,488.8z
				 M237.9,583.8v-73.4h4.6v73.4H237.9z"/>
			<path class="st0" d="M305.3,488.2c-2.8-2.9-6.7-5.2-12.2-5.2c-13.4,0-19.7,10.5-19.7,23.9v4.9h22.3v4.3h-22.3v67.7h-4.6v-67.6
				h-13.2v-4.3h13.2V507c0-16.7,9.7-28.1,24.4-28.1c5.9,0,11.2,2.1,15.4,6.3L305.3,488.2L305.3,488.2z"/>
			<path class="st0" d="M329.4,589.7c-3.8,11.1-9.8,23.2-27.3,24.4l-0.3-4.5c14.8-0.4,21-11.8,24.6-24.9l-27.9-74.2h4.9l17.6,47
				c3.8,9.9,6.7,18.3,7.7,21.4h0.3c1.3-3.9,4.1-12.3,7.3-22.1l15.4-46.3h4.5L329.4,589.7L329.4,589.7z"/>
			<path class="st0" d="M497.1,583.8v-51.9c0-12.7-8-19.5-19.7-19.5c-8.5,0-15.8,4.3-21.1,12.7c-1.8,2.9-2.2,4.1-2.2,7.6v51.1h-4.6
				v-51.9c0-12.7-8.1-19.5-19.9-19.5c-8.5,0-15.7,4.3-21,12.7c-1.8,2.9-2.4,4.1-2.4,7.6v51.1h-4.6v-73.4h4.3V523
				c5.6-8.5,13.7-14.7,24.5-14.7c10.1,0,19.5,4.5,22.5,15.7c5.7-8.4,12.9-15.7,25.2-15.7s23.7,6.7,23.7,23.8v51.7H497.1L497.1,583.8
				z"/>
			<path class="st0" d="M573.7,542.7h-50.4c0,1.7-0.1,3.2-0.1,4.9c0,17.5,8.1,34,27.6,34c7.1,0,13.6-3.4,18.2-8.7l3.2,2.9
				c-5.5,6.6-13.6,10.1-22.1,10.1c-22.7,0-31.5-18.3-31.5-38.5c0-17.9,8.1-39.1,29-39.1c17.6,0,26.3,15.4,26.3,31.4
				C573.8,540.7,573.8,541.7,573.7,542.7L573.7,542.7z M547.1,512.4c-14.4,0-22,13.2-23.2,26h45.4
				C569.2,525.6,561.2,512.4,547.1,512.4z"/>
			<path class="st2" d="M595.3,584.7c-2.5,0-4.3-1.8-4.3-4.3s1.7-4.2,4.2-4.2s4.3,1.7,4.3,4.2S597.8,584.7,595.3,584.7z M597,563.8
				h-3.2c0,0-1.3-51.4-1.3-83.6h5.6C598.1,512.4,597,563.8,597,563.8z"/>
		</g>
	</g>
</g>
</svg>
