<?xml version="1.0" encoding="utf-8"?>
<!-- Generator: Adobe Illustrator 28.3.0, SVG Export Plug-In . SVG Version: 6.00 Build 0)  -->
<svg version="1.1" id="Layer_2_00000001659278473446097000000009334547992168876428_"
	 xmlns="http://www.w3.org/2000/svg" xmlns:xlink="http://www.w3.org/1999/xlink" x="0px" y="0px" viewBox="0 0 1357.8 281.7"
	 style="enable-background:new 0 0 1357.8 281.7;" xml:space="preserve">
<style type="text/css">
	.st0{fill:#EBE5D2;}
	.st1{fill:#654C53;}
	.st2{fill:#FDC671;}
</style>
<g id="Prod">
	<g>
		<g>
			<path class="st0" d="M272.7,0h-65.2c52.7,25,89.2,78.8,89.2,140.9s-36.5,115.9-89.2,140.9h65.2c77.6,0,141-63.4,141-140.9
				S350.2,0,272.7,0z"/>
			<path class="st1" d="M220.2,172h0.1c18.3,0,33.2-14.6,33.2-32.6c0-0.1,0-0.2,0-0.3c-0.2-17.6-14.9-32-32.9-32.2
				c-17.8,0.2-32.2,14.7-32.2,32.5S202.6,171.6,220.2,172L220.2,172z"/>
			<path class="st2" d="M255.8,222.3c-4.1,0.6-8.4,0.9-12.7,0.9c-23,0-43.9-8.9-59.6-23.4c-11.8,8.1-25.9,12.7-40.6,12.7
				c-39.5,0-71.7-32.2-71.7-71.7s32.2-71.7,71.7-71.7c12.1,0,23.8,3,34.1,8.6c16.1-18.4,39.7-30.1,66.1-30.1c1.2,0,2.4,0,3.5,0.1
				C220.8,18.5,183.1,0,141,0h-0.1c-1.8,0-3.5,0-5.3,0.1C65.1,2.7,7.8,57.2,0.7,126.5C0.3,131.2,0,136,0,140.9s0.2,9.7,0.7,14.4
				c7,69.3,64.3,123.8,134.8,126.4c1.8,0.1,3.5,0.1,5.3,0.1h0.1C188.4,281.7,230.3,258.2,255.8,222.3L255.8,222.3z"/>
			<path class="st2" d="M196.1,106.8c-6-9.4-14.5-17.2-24.5-22.3c-8.6-4.4-18.4-6.9-28.7-6.9c-34.9,0-63.2,28.3-63.2,63.2
				s28.3,63.2,63.2,63.2c12.8,0,24.6-3.8,34.6-10.3c8.1-5.3,14.9-12.4,19.8-20.8c-10.5-7.4-17.4-19.7-17.4-33.5
				S186.3,114.3,196.1,106.8L196.1,106.8z"/>
		</g>
		<g>
			<path class="st0" d="M574.4,195v-18.2c-6.8,11-18,21.2-33.4,21.2c-21.4,0-38.6-18.4-38.6-53.5s17.8-57.1,45.7-57.1
				c9.2,0,20.8,2.2,25.8,9.4V47.1h6.6V195L574.4,195L574.4,195z M574,109.3c0-9.4-9.4-16.2-24.8-16.2c-26.6,0-39.9,20.4-39.9,48.9
				c0,31.6,13.2,50.1,33,50.1c13.8,0,22-8.8,27.6-17.2c3.4-5.2,4.2-7,4.2-11.8L574,109.3L574,109.3z"/>
			<path class="st0" d="M751.8,195v-74.1c0-18.2-11.4-27.8-28.2-27.8c-12.2,0-22.6,6.2-30.2,18.2c-2.6,4.2-3.2,5.8-3.2,10.8V195
				h-6.6v-74.1c0-18.2-11.6-27.8-28.4-27.8c-12.2,0-22.4,6.2-30,18.2c-2.6,4.2-3.4,5.8-3.4,10.8V195h-6.6V90.3h6.2v18
				c8-12.2,19.6-21,35-21c14.4,0,27.8,6.4,32.2,22.4c8.2-12,18.4-22.4,35.9-22.4c17.6,0,33.8,9.6,33.8,34V195L751.8,195L751.8,195z"
				/>
			<path class="st0" d="M775.6,142.6v-6.8h46.1v6.8H775.6z"/>
			<path class="st0" d="M845.5,59.3c-3.6,0-6-2.4-6-6c0-3.6,2.4-6.2,6-6.2s6,2.6,6,6.2C851.5,56.9,849.1,59.3,845.5,59.3z
				 M841.9,195V90.3h6.6V195H841.9z"/>
			<path class="st0" d="M938.2,58.5c-4-4.2-9.6-7.4-17.4-7.4c-19.2,0-28.2,15-28.2,34.2v7h31.8v6.2h-31.8V195H886V98.5h-18.8v-6.2
				H886v-7c0-23.8,13.8-40.1,34.8-40.1c8.4,0,16,3,22,9L938.2,58.5L938.2,58.5z"/>
			<path class="st0" d="M972.5,203.4c-5.4,15.8-14,33.2-39,34.8l-0.4-6.4c21.2-0.6,30-16.8,35.2-35.6L928.6,90.3h7l25.2,67.1
				c5.4,14.2,9.6,26.2,11,30.6h0.4c1.8-5.6,5.8-17.6,10.4-31.6l22-66.1h6.4L972.5,203.4L972.5,203.4z"/>
			<path class="st0" d="M1211.8,195v-74.1c0-18.2-11.4-27.8-28.2-27.8c-12.2,0-22.6,6.2-30.2,18.2c-2.6,4.2-3.2,5.8-3.2,10.8V195
				h-6.6v-74.1c0-18.2-11.6-27.8-28.4-27.8c-12.2,0-22.4,6.2-30,18.2c-2.6,4.2-3.4,5.8-3.4,10.8V195h-6.6V90.3h6.2v18
				c8-12.2,19.6-21,35-21c14.4,0,27.8,6.4,32.2,22.4c8.2-12,18.4-22.4,35.9-22.4s33.8,9.6,33.8,34V195L1211.8,195L1211.8,195z"/>
			<path class="st0" d="M1321.1,136.2h-71.9c0,2.4-0.2,4.6-0.2,7c0,25,11.6,48.5,39.4,48.5c10.2,0,19.4-4.8,26-12.4l4.6,4.2
				c-7.8,9.4-19.4,14.4-31.6,14.4c-32.4,0-44.9-26.2-44.9-54.9c0-25.6,11.6-55.7,41.3-55.7c25.2,0,37.6,22,37.6,44.7
				C1321.3,133.4,1321.3,134.8,1321.1,136.2L1321.1,136.2z M1283.1,93.1c-20.6,0-31.4,18.8-33.2,37.1h64.7
				C1314.7,111.9,1303.3,93.1,1283.1,93.1z"/>
			<path class="st2" d="M1351.8,196.2c-3.6,0-6.2-2.6-6.2-6.2s2.4-6,6-6c3.6,0,6.2,2.4,6.2,6S1355.4,196.2,1351.8,196.2z
				 M1354.2,166.4h-4.6c0,0-1.8-73.3-1.8-119.2h8C1355.8,93.1,1354.2,166.4,1354.2,166.4L1354.2,166.4z"/>
		</g>
	</g>
</g>
</svg>
